<svg xmlns="http://www.w3.org/2000/svg" xmlns:xlink="http://www.w3.org/1999/xlink" width="500" zoomAndPan="magnify" viewBox="0 0 375 374.999991" height="500" preserveAspectRatio="xMidYMid meet" version="1.0"><defs><clipPath id="8f63f5fd20"><path d="M 45.21875 56 L 216 56 L 216 320 L 45.21875 320 Z M 45.21875 56 " clip-rule="nonzero"/></clipPath><clipPath id="3e8270ef55"><path d="M 45.21875 56 L 216 56 L 216 255 L 45.21875 255 Z M 45.21875 56 " clip-rule="nonzero"/></clipPath><clipPath id="208183f64a"><path d="M 277 55.308594 L 329.46875 55.308594 L 329.46875 108 L 277 108 Z M 277 55.308594 " clip-rule="nonzero"/></clipPath><clipPath id="58888adb7a"><path d="M 154 59 L 329.46875 59 L 329.46875 318 L 154 318 Z M 154 59 " clip-rule="nonzero"/></clipPath><clipPath id="b33a593733"><path d="M 154 59 L 329.46875 59 L 329.46875 254 L 154 254 Z M 154 59 " clip-rule="nonzero"/></clipPath></defs><rect x="-37.5" width="450" fill="#ffffff" y="-37.499999" height="449.999989" fill-opacity="1"/><rect x="-37.5" width="450" fill="#ffffff" y="-37.499999" height="449.999989" fill-opacity="1"/><rect x="-37.5" width="450" fill="#000000" y="-37.499999" height="449.999989" fill-opacity="1"/><g clip-path="url(#8f63f5fd20)"><path fill="#ffffff" d="M 112.832031 68.570312 L 204.195312 160.164062 C 205.113281 161.085938 205.984375 162.046875 206.808594 163.050781 C 207.628906 164.058594 208.402344 165.101562 209.121094 166.183594 C 209.84375 167.265625 210.507812 168.378906 211.121094 169.523438 C 211.734375 170.671875 212.285156 171.847656 212.78125 173.046875 C 213.28125 174.25 213.714844 175.472656 214.09375 176.71875 C 214.46875 177.960938 214.785156 179.222656 215.035156 180.496094 C 215.289062 181.773438 215.480469 183.058594 215.605469 184.351562 C 215.734375 185.644531 215.796875 186.941406 215.796875 188.242188 C 215.796875 189.542969 215.734375 190.839844 215.605469 192.136719 C 215.480469 193.429688 215.289062 194.714844 215.035156 195.992188 C 214.785156 197.265625 214.46875 198.527344 214.09375 199.769531 C 213.714844 201.015625 213.28125 202.238281 212.78125 203.4375 C 212.285156 204.640625 211.734375 205.816406 211.121094 206.960938 C 210.507812 208.109375 209.84375 209.222656 209.121094 210.304688 C 208.402344 211.386719 207.628906 212.429688 206.808594 213.433594 C 205.984375 214.441406 205.113281 215.402344 204.195312 216.320312 L 112.832031 307.914062 C 87.878906 332.929688 45.199219 315.203125 45.21875 279.808594 L 45.21875 96.621094 C 45.199219 61.285156 87.878906 43.554688 112.832031 68.570312 Z M 112.832031 68.570312 " fill-opacity="1" fill-rule="nonzero"/></g><g clip-path="url(#3e8270ef55)"><path fill="#ffffff" d="M 112.832031 68.570312 C 88.019531 43.699219 45.828125 61.082031 45.242188 96.027344 C 45.242188 96.027344 189.011719 232.402344 166.148438 254.628906 L 204.277344 216.402344 C 205.195312 215.484375 206.066406 214.519531 206.886719 213.515625 C 207.710938 212.511719 208.484375 211.46875 209.203125 210.386719 C 209.925781 209.304688 210.589844 208.191406 211.203125 207.042969 C 211.8125 205.894531 212.367188 204.722656 212.863281 203.519531 C 213.359375 202.320312 213.796875 201.097656 214.171875 199.851562 C 214.550781 198.605469 214.863281 197.347656 215.117188 196.070312 C 215.371094 194.796875 215.5625 193.511719 215.6875 192.21875 C 215.816406 190.921875 215.878906 189.625 215.878906 188.324219 C 215.878906 187.023438 215.816406 185.726562 215.6875 184.433594 C 215.5625 183.136719 215.371094 181.855469 215.117188 180.578125 C 214.863281 179.300781 214.550781 178.042969 214.171875 176.796875 C 213.796875 175.554688 213.359375 174.332031 212.863281 173.128906 C 212.367188 171.925781 211.8125 170.753906 211.203125 169.605469 C 210.589844 168.460938 209.925781 167.34375 209.203125 166.265625 C 208.484375 165.183594 207.710938 164.140625 206.886719 163.132812 C 206.066406 162.128906 205.195312 161.164062 204.277344 160.246094 Z M 112.832031 68.570312 " fill-opacity="1" fill-rule="nonzero"/></g><g clip-path="url(#208183f64a)"><path fill="#ffffff" d="M 329.46875 81.558594 C 329.46875 82.40625 329.429688 83.253906 329.34375 84.101562 C 329.261719 84.945312 329.136719 85.785156 328.972656 86.621094 C 328.808594 87.453125 328.601562 88.277344 328.355469 89.089844 C 328.109375 89.902344 327.824219 90.703125 327.5 91.488281 C 327.175781 92.273438 326.8125 93.042969 326.414062 93.789062 C 326.015625 94.539062 325.578125 95.269531 325.105469 95.976562 C 324.636719 96.683594 324.132812 97.363281 323.59375 98.019531 C 323.054688 98.679688 322.488281 99.308594 321.886719 99.90625 C 321.289062 100.507812 320.660156 101.078125 320.003906 101.617188 C 319.351562 102.15625 318.671875 102.664062 317.964844 103.136719 C 317.261719 103.609375 316.535156 104.042969 315.785156 104.445312 C 315.039062 104.84375 314.273438 105.207031 313.488281 105.535156 C 312.707031 105.859375 311.910156 106.144531 311.097656 106.390625 C 310.285156 106.636719 309.464844 106.84375 308.632812 107.011719 C 307.800781 107.175781 306.964844 107.300781 306.121094 107.382812 C 305.277344 107.46875 304.429688 107.507812 303.582031 107.507812 C 302.734375 107.507812 301.890625 107.46875 301.046875 107.382812 C 300.203125 107.300781 299.363281 107.175781 298.53125 107.011719 C 297.699219 106.84375 296.878906 106.636719 296.070312 106.390625 C 295.257812 106.144531 294.460938 105.859375 293.675781 105.535156 C 292.894531 105.207031 292.128906 104.84375 291.378906 104.445312 C 290.632812 104.042969 289.90625 103.609375 289.199219 103.136719 C 288.496094 102.664062 287.816406 102.15625 287.160156 101.617188 C 286.503906 101.078125 285.878906 100.507812 285.277344 99.90625 C 284.679688 99.308594 284.109375 98.679688 283.570312 98.019531 C 283.035156 97.363281 282.53125 96.683594 282.058594 95.976562 C 281.585938 95.269531 281.152344 94.539062 280.753906 93.789062 C 280.351562 93.042969 279.992188 92.273438 279.667969 91.488281 C 279.34375 90.703125 279.058594 89.902344 278.8125 89.089844 C 278.566406 88.277344 278.359375 87.453125 278.195312 86.621094 C 278.027344 85.785156 277.902344 84.945312 277.820312 84.101562 C 277.738281 83.253906 277.695312 82.40625 277.695312 81.558594 C 277.695312 80.707031 277.738281 79.859375 277.820312 79.015625 C 277.902344 78.167969 278.027344 77.328125 278.195312 76.496094 C 278.359375 75.660156 278.566406 74.835938 278.8125 74.023438 C 279.058594 73.210938 279.34375 72.410156 279.667969 71.625 C 279.992188 70.839844 280.351562 70.074219 280.753906 69.324219 C 281.152344 68.574219 281.585938 67.847656 282.058594 67.140625 C 282.53125 66.433594 283.035156 65.75 283.570312 65.09375 C 284.109375 64.4375 284.679688 63.808594 285.277344 63.207031 C 285.878906 62.605469 286.503906 62.035156 287.160156 61.496094 C 287.816406 60.957031 288.496094 60.453125 289.199219 59.980469 C 289.90625 59.507812 290.632812 59.070312 291.378906 58.671875 C 292.128906 58.269531 292.894531 57.90625 293.675781 57.582031 C 294.460938 57.257812 295.257812 56.96875 296.070312 56.722656 C 296.878906 56.476562 297.699219 56.269531 298.53125 56.105469 C 299.363281 55.9375 300.203125 55.8125 301.046875 55.730469 C 301.890625 55.648438 302.734375 55.605469 303.582031 55.605469 C 304.429688 55.605469 305.277344 55.648438 306.121094 55.730469 C 306.964844 55.8125 307.800781 55.9375 308.632812 56.105469 C 309.464844 56.269531 310.285156 56.476562 311.097656 56.722656 C 311.910156 56.96875 312.707031 57.257812 313.488281 57.582031 C 314.273438 57.90625 315.039062 58.269531 315.785156 58.671875 C 316.535156 59.070312 317.261719 59.507812 317.964844 59.980469 C 318.671875 60.453125 319.351562 60.957031 320.003906 61.496094 C 320.660156 62.035156 321.289062 62.605469 321.886719 63.207031 C 322.488281 63.808594 323.054688 64.4375 323.59375 65.09375 C 324.132812 65.75 324.636719 66.433594 325.105469 67.140625 C 325.578125 67.847656 326.015625 68.574219 326.414062 69.324219 C 326.8125 70.074219 327.175781 70.839844 327.5 71.625 C 327.824219 72.410156 328.109375 73.210938 328.355469 74.023438 C 328.601562 74.835938 328.808594 75.660156 328.972656 76.496094 C 329.136719 77.328125 329.261719 78.167969 329.34375 79.015625 C 329.429688 79.859375 329.46875 80.707031 329.46875 81.558594 Z M 329.46875 81.558594 " fill-opacity="1" fill-rule="nonzero"/><path fill="#ffffff" d="M 329.46875 81.558594 C 329.46875 82.40625 329.429688 83.253906 329.34375 84.101562 C 329.261719 84.945312 329.136719 85.785156 328.972656 86.621094 C 328.808594 87.453125 328.601562 88.277344 328.355469 89.089844 C 328.109375 89.902344 327.824219 90.703125 327.5 91.488281 C 327.175781 92.273438 326.8125 93.042969 326.414062 93.789062 C 326.015625 94.539062 325.578125 95.269531 325.105469 95.976562 C 324.636719 96.683594 324.132812 97.363281 323.59375 98.019531 C 323.054688 98.679688 322.488281 99.308594 321.886719 99.90625 C 321.289062 100.507812 320.660156 101.078125 320.003906 101.617188 C 319.351562 102.15625 318.671875 102.664062 317.964844 103.136719 C 317.261719 103.609375 316.535156 104.042969 315.785156 104.445312 C 315.039062 104.84375 314.273438 105.207031 313.488281 105.535156 C 312.707031 105.859375 311.910156 106.144531 311.097656 106.390625 C 310.285156 106.636719 309.464844 106.84375 308.632812 107.011719 C 307.800781 107.175781 306.964844 107.300781 306.121094 107.382812 C 305.277344 107.46875 304.429688 107.507812 303.582031 107.507812 C 302.734375 107.507812 301.890625 107.46875 301.046875 107.382812 C 300.203125 107.300781 299.363281 107.175781 298.53125 107.011719 C 297.699219 106.84375 296.878906 106.636719 296.070312 106.390625 C 295.257812 106.144531 294.460938 105.859375 293.675781 105.535156 C 292.894531 105.207031 292.128906 104.84375 291.378906 104.445312 C 290.632812 104.042969 289.90625 103.609375 289.199219 103.136719 C 288.496094 102.664062 287.816406 102.15625 287.160156 101.617188 C 286.503906 101.078125 285.878906 100.507812 285.277344 99.90625 C 284.679688 99.308594 284.109375 98.679688 283.570312 98.019531 C 283.035156 97.363281 282.53125 96.683594 282.058594 95.976562 C 281.585938 95.269531 281.152344 94.539062 280.753906 93.789062 C 280.351562 93.042969 279.992188 92.273438 279.667969 91.488281 C 279.34375 90.703125 279.058594 89.902344 278.8125 89.089844 C 278.566406 88.277344 278.359375 87.453125 278.195312 86.621094 C 278.027344 85.785156 277.902344 84.945312 277.820312 84.101562 C 277.738281 83.253906 277.695312 82.40625 277.695312 81.558594 C 277.695312 80.707031 277.738281 79.859375 277.820312 79.015625 C 277.902344 78.167969 278.027344 77.328125 278.195312 76.496094 C 278.359375 75.660156 278.566406 74.835938 278.8125 74.023438 C 279.058594 73.210938 279.34375 72.410156 279.667969 71.625 C 279.992188 70.839844 280.351562 70.074219 280.753906 69.324219 C 281.152344 68.574219 281.585938 67.847656 282.058594 67.140625 C 282.53125 66.433594 283.035156 65.75 283.570312 65.09375 C 284.109375 64.4375 284.679688 63.808594 285.277344 63.207031 C 285.878906 62.605469 286.503906 62.035156 287.160156 61.496094 C 287.816406 60.957031 288.496094 60.453125 289.199219 59.980469 C 289.90625 59.507812 290.632812 59.070312 291.378906 58.671875 C 292.128906 58.269531 292.894531 57.90625 293.675781 57.582031 C 294.460938 57.257812 295.257812 56.96875 296.070312 56.722656 C 296.878906 56.476562 297.699219 56.269531 298.53125 56.105469 C 299.363281 55.9375 300.203125 55.8125 301.046875 55.730469 C 301.890625 55.648438 302.734375 55.605469 303.582031 55.605469 C 304.429688 55.605469 305.277344 55.648438 306.121094 55.730469 C 306.964844 55.8125 307.800781 55.9375 308.632812 56.105469 C 309.464844 56.269531 310.285156 56.476562 311.097656 56.722656 C 311.910156 56.96875 312.707031 57.257812 313.488281 57.582031 C 314.273438 57.90625 315.039062 58.269531 315.785156 58.671875 C 316.535156 59.070312 317.261719 59.507812 317.964844 59.980469 C 318.671875 60.453125 319.351562 60.957031 320.003906 61.496094 C 320.660156 62.035156 321.289062 62.605469 321.886719 63.207031 C 322.488281 63.808594 323.054688 64.4375 323.59375 65.09375 C 324.132812 65.75 324.636719 66.433594 325.105469 67.140625 C 325.578125 67.847656 326.015625 68.574219 326.414062 69.324219 C 326.8125 70.074219 327.175781 70.839844 327.5 71.625 C 327.824219 72.410156 328.109375 73.210938 328.355469 74.023438 C 328.601562 74.835938 328.808594 75.660156 328.972656 76.496094 C 329.136719 77.328125 329.261719 78.167969 329.34375 79.015625 C 329.429688 79.859375 329.46875 80.707031 329.46875 81.558594 Z M 329.46875 81.558594 " fill-opacity="1" fill-rule="nonzero"/></g><g clip-path="url(#58888adb7a)"><path fill="#ffffff" d="M 317.855469 160.390625 L 226.492188 68.796875 C 201.964844 44.1875 136.585938 72.722656 158.960938 95.152344 L 224.664062 161.039062 C 225.582031 161.960938 226.453125 162.921875 227.273438 163.925781 C 228.097656 164.929688 228.871094 165.972656 229.589844 167.054688 C 230.3125 168.132812 230.980469 169.25 231.589844 170.394531 C 232.203125 171.542969 232.757812 172.714844 233.253906 173.917969 C 233.75 175.117188 234.1875 176.339844 234.5625 177.582031 C 234.941406 178.828125 235.257812 180.089844 235.507812 181.363281 C 235.761719 182.636719 235.953125 183.921875 236.078125 185.21875 C 236.207031 186.511719 236.269531 187.808594 236.269531 189.109375 C 236.269531 190.410156 236.207031 191.707031 236.078125 193 C 235.953125 194.292969 235.761719 195.578125 235.507812 196.855469 C 235.257812 198.128906 234.941406 199.390625 234.5625 200.632812 C 234.1875 201.878906 233.75 203.101562 233.253906 204.300781 C 232.757812 205.503906 232.203125 206.675781 231.589844 207.824219 C 230.980469 208.96875 230.3125 210.082031 229.589844 211.164062 C 228.871094 212.246094 228.097656 213.285156 227.273438 214.292969 C 226.453125 215.296875 225.582031 216.257812 224.664062 217.175781 L 159 283.023438 C 138.980469 303.070312 202.207031 332.644531 226.492188 308.300781 L 317.855469 216.707031 C 318.78125 215.789062 319.65625 214.824219 320.484375 213.816406 C 321.3125 212.8125 322.089844 211.765625 322.816406 210.683594 C 323.542969 209.597656 324.210938 208.480469 324.828125 207.332031 C 325.445312 206.179688 326 205.003906 326.5 203.796875 C 327 202.59375 327.441406 201.367188 327.820312 200.117188 C 328.199219 198.867188 328.515625 197.605469 328.773438 196.324219 C 329.027344 195.042969 329.21875 193.753906 329.347656 192.457031 C 329.476562 191.15625 329.539062 189.855469 329.539062 188.546875 C 329.539062 187.242188 329.476562 185.941406 329.347656 184.640625 C 329.21875 183.34375 329.027344 182.054688 328.773438 180.773438 C 328.515625 179.492188 328.199219 178.230469 327.820312 176.980469 C 327.441406 175.730469 327 174.503906 326.5 173.300781 C 326 172.09375 325.445312 170.917969 324.828125 169.765625 C 324.210938 168.617188 323.542969 167.5 322.816406 166.414062 C 322.089844 165.332031 321.3125 164.285156 320.484375 163.28125 C 319.65625 162.273438 318.78125 161.308594 317.855469 160.390625 Z M 317.855469 160.390625 " fill-opacity="1" fill-rule="nonzero"/></g><g clip-path="url(#b33a593733)"><path fill="#ffffff" d="M 317.855469 160.390625 L 226.492188 68.796875 C 201.964844 44.1875 136.585938 72.722656 158.960938 95.152344 L 224.664062 161.039062 C 226.238281 162.617188 227.667969 164.3125 228.957031 166.132812 C 230.246094 167.953125 231.371094 169.867188 232.335938 171.878906 C 233.300781 173.886719 234.089844 175.964844 234.703125 178.109375 C 235.316406 180.253906 235.746094 182.433594 235.992188 184.652344 C 258.632812 211.292969 277.453125 237.164062 281.371094 253.285156 L 317.917969 216.648438 C 318.835938 215.726562 319.710938 214.761719 320.535156 213.753906 C 321.359375 212.75 322.136719 211.703125 322.859375 210.617188 C 323.582031 209.535156 324.246094 208.417969 324.859375 207.269531 C 325.472656 206.121094 326.027344 204.941406 326.527344 203.738281 C 327.023438 202.535156 327.460938 201.308594 327.835938 200.058594 C 328.214844 198.8125 328.53125 197.550781 328.78125 196.269531 C 329.035156 194.992188 329.226562 193.703125 329.351562 192.40625 C 329.476562 191.109375 329.539062 189.808594 329.539062 188.503906 C 329.539062 187.203125 329.472656 185.902344 329.34375 184.605469 C 329.214844 183.308594 329.019531 182.019531 328.765625 180.742188 C 328.511719 179.464844 328.191406 178.203125 327.8125 176.953125 C 327.433594 175.707031 326.992188 174.484375 326.492188 173.28125 C 325.992188 172.078125 325.4375 170.902344 324.820312 169.753906 C 324.203125 168.605469 323.535156 167.488281 322.808594 166.40625 C 322.085938 165.324219 321.308594 164.28125 320.480469 163.277344 C 319.652344 162.269531 318.777344 161.308594 317.855469 160.390625 Z M 317.855469 160.390625 " fill-opacity="1" fill-rule="nonzero"/></g></svg>